<?xml version="1.0" encoding="UTF-8" standalone="no"?>
<!-- Created with Inkscape (http://www.inkscape.org/) -->

<svg
   xmlns:dc="http://purl.org/dc/elements/1.1/"
   xmlns:cc="http://creativecommons.org/ns#"
   xmlns:rdf="http://www.w3.org/1999/02/22-rdf-syntax-ns#"
   xmlns:svg="http://www.w3.org/2000/svg"
   xmlns="http://www.w3.org/2000/svg"
   xmlns:sodipodi="http://sodipodi.sourceforge.net/DTD/sodipodi-0.dtd"
   xmlns:inkscape="http://www.inkscape.org/namespaces/inkscape"
   width="297mm"
   height="210mm"
   viewBox="0 0 1052.3622 744.09448"
   id="svg2"
   version="1.1"
   inkscape:version="0.91 r13725"
   sodipodi:docname="002.svg">
  <defs
     id="defs4" />
  <sodipodi:namedview
     id="base"
     pagecolor="#ffffff"
     bordercolor="#666666"
     borderopacity="1.0"
     inkscape:pageopacity="0.0"
     inkscape:pageshadow="2"
     inkscape:zoom="0.04375"
     inkscape:cx="-4798.8484"
     inkscape:cy="1591.5224"
     inkscape:document-units="px"
     inkscape:current-layer="layer1"
     showgrid="false"
     inkscape:object-paths="true"
     inkscape:snap-intersection-paths="true"
     inkscape:object-nodes="true"
     inkscape:snap-smooth-nodes="true"
     inkscape:window-width="1600"
     inkscape:window-height="873"
     inkscape:window-x="2151"
     inkscape:window-y="1011"
     inkscape:window-maximized="1" />
  <metadata
     id="metadata7">
    <rdf:RDF>
      <cc:Work
         rdf:about="">
        <dc:format>image/svg+xml</dc:format>
        <dc:type
           rdf:resource="http://purl.org/dc/dcmitype/StillImage" />
        <dc:title></dc:title>
      </cc:Work>
    </rdf:RDF>
  </metadata>
  <g
     inkscape:label="Layer 1"
     inkscape:groupmode="layer"
     id="layer1"
     transform="translate(0,-308.26772)">
    <path
       sodipodi:type="star"
       style="fill:#000080;stroke:none;stroke-width:10;stroke-linecap:square;stroke-miterlimit:4;stroke-dasharray:none;stroke-opacity:1"
       id="path4136"
       sodipodi:sides="6"
       sodipodi:cx="317.1879"
       sodipodi:cy="723.05246"
       sodipodi:r1="208.80614"
       sodipodi:r2="180.83141"
       sodipodi:arg1="1.0471976"
       sodipodi:arg2="1.5707963"
       inkscape:flatsided="true"
       inkscape:rounded="0"
       inkscape:randomized="0"
       d="m 421.59096,903.88391 -208.80614,-10e-6 -104.40306,-180.83142 104.40308,-180.83141 208.80613,10e-6 104.40306,180.83142 z" />
    <path
       sodipodi:type="star"
       style="fill:#000080;stroke:none;stroke-width:10;stroke-linecap:square;stroke-miterlimit:4;stroke-dasharray:none;stroke-opacity:1"
       id="path4136-8"
       sodipodi:sides="6"
       sodipodi:cx="630.39711"
       sodipodi:cy="542.22109"
       sodipodi:r1="208.80614"
       sodipodi:r2="180.83141"
       sodipodi:arg1="1.0471976"
       sodipodi:arg2="1.5707963"
       inkscape:flatsided="true"
       inkscape:rounded="0"
       inkscape:randomized="0"
       d="m 734.80015,723.05249 -208.80613,-1e-5 -104.40306,-180.83142 104.40308,-180.83141 208.80613,10e-6 104.40306,180.83142 z" />
    <path
       sodipodi:type="star"
       style="fill:#000080;stroke:none;stroke-width:10;stroke-linecap:square;stroke-miterlimit:4;stroke-dasharray:none;stroke-opacity:1"
       id="path4136-5"
       sodipodi:sides="6"
       sodipodi:cx="630.39709"
       sodipodi:cy="903.88392"
       sodipodi:r1="208.80614"
       sodipodi:r2="180.83141"
       sodipodi:arg1="1.0471976"
       sodipodi:arg2="1.5707963"
       inkscape:flatsided="true"
       inkscape:rounded="0"
       inkscape:randomized="0"
       d="m 734.80015,1084.7153 -208.80613,0 -104.40306,-180.8314 104.40308,-180.83141 208.80613,10e-6 104.40306,180.83142 z" />
    <path
       sodipodi:type="star"
       style="fill:#000080;stroke:none;stroke-width:10;stroke-linecap:square;stroke-miterlimit:4;stroke-dasharray:none;stroke-opacity:1"
       id="path4136-8-1"
       sodipodi:sides="6"
       sodipodi:cx="943.60629"
       sodipodi:cy="723.0525"
       sodipodi:r1="208.80614"
       sodipodi:r2="180.83141"
       sodipodi:arg1="1.0471976"
       sodipodi:arg2="1.5707963"
       inkscape:flatsided="true"
       inkscape:rounded="0"
       inkscape:randomized="0"
       d="M 1048.0093,903.88391 839.20318,903.8839 734.80013,723.05248 839.2032,542.22107 l 208.8061,10e-6 104.4031,180.83142 z" />
    <path
       sodipodi:type="star"
       style="fill:#000080;stroke:none;stroke-width:10;stroke-linecap:square;stroke-miterlimit:4;stroke-dasharray:none;stroke-opacity:1"
       id="path4136-86"
       sodipodi:sides="6"
       sodipodi:cx="943.60631"
       sodipodi:cy="361.38967"
       sodipodi:r1="208.80614"
       sodipodi:r2="180.83141"
       sodipodi:arg1="1.0471976"
       sodipodi:arg2="1.5707963"
       inkscape:flatsided="true"
       inkscape:rounded="0"
       inkscape:randomized="0"
       d="m 1048.0094,542.2211 -208.80615,-10e-6 -104.40306,-180.83142 104.40307,-180.83142 208.80614,1e-5 104.4031,180.83143 z" />
    <path
       sodipodi:type="star"
       style="fill:#000080;stroke:none;stroke-width:10;stroke-linecap:square;stroke-miterlimit:4;stroke-dasharray:none;stroke-opacity:1"
       id="path4136-8-8"
       sodipodi:sides="6"
       sodipodi:cx="1256.8155"
       sodipodi:cy="180.55831"
       sodipodi:r1="208.80614"
       sodipodi:r2="180.83141"
       sodipodi:arg1="1.0471976"
       sodipodi:arg2="1.5707963"
       inkscape:flatsided="true"
       inkscape:rounded="0"
       inkscape:randomized="0"
       d="m 1361.2186,361.38973 -208.8061,-10e-6 -104.4031,-180.83143 104.4031,-180.83141044 208.8061,1.019e-5 104.4031,180.83142025 z" />
    <path
       sodipodi:type="star"
       style="fill:#000080;stroke:none;stroke-width:10;stroke-linecap:square;stroke-miterlimit:4;stroke-dasharray:none;stroke-opacity:1"
       id="path4136-55"
       sodipodi:sides="6"
       sodipodi:cx="1256.8155"
       sodipodi:cy="542.22111"
       sodipodi:r1="208.80614"
       sodipodi:r2="180.83141"
       sodipodi:arg1="1.0471976"
       sodipodi:arg2="1.5707963"
       inkscape:flatsided="true"
       inkscape:rounded="0"
       inkscape:randomized="0"
       d="m 1361.2186,723.05255 -208.8061,-10e-6 -104.4031,-180.83142 104.4031,-180.83141 208.8061,1e-5 104.4031,180.83142 z" />
    <path
       sodipodi:type="star"
       style="fill:#000080;stroke:none;stroke-width:10;stroke-linecap:square;stroke-miterlimit:4;stroke-dasharray:none;stroke-opacity:1"
       id="path4136-8-9"
       sodipodi:sides="6"
       sodipodi:cx="1570.0247"
       sodipodi:cy="361.38972"
       sodipodi:r1="208.80614"
       sodipodi:r2="180.83141"
       sodipodi:arg1="1.0471976"
       sodipodi:arg2="1.5707963"
       inkscape:flatsided="true"
       inkscape:rounded="0"
       inkscape:randomized="0"
       d="m 1674.4277,542.22113 -208.8061,-10e-6 -104.4031,-180.83142 104.4031,-180.83141 208.8061,1e-5 104.4031,180.83142 z" />
    <path
       style="fill:#000080;stroke:none;stroke-width:10;stroke-linecap:square;stroke-miterlimit:4;stroke-dasharray:none;stroke-opacity:1"
       d="m -503.39181,-1724.9538 -113.3043,422.8575 113.3043,422.85745 189.1731,0 -113.3043,-422.85745 113.3043,-422.8575 -189.1731,0 z"
       id="rect4208"
       inkscape:connector-curvature="0" />
    <path
       inkscape:connector-curvature="0"
       style="fill:#000080;stroke:none;stroke-width:10;stroke-linecap:square;stroke-miterlimit:4;stroke-dasharray:none;stroke-opacity:1"
       d="m -10059.736,-227.63809 -349.1,1302.85739 349.1,1302.8575 582.8574,0 -349.0996,-1302.8575 349.0996,-1302.85739 -582.8574,0 z"
       id="rect4208-1" />
    <path
       style="fill:#000080;stroke:none;stroke-width:10;stroke-linecap:square;stroke-miterlimit:4;stroke-dasharray:none;stroke-opacity:1"
       d="m -314.21871,-1724.9538 -113.3043,422.8575 113.3043,422.85749 189.1731,0 -113.3043,-422.85749 113.3043,-422.8575 -189.1731,0 z"
       id="rect4208-9"
       inkscape:connector-curvature="0" />
    <path
       style="fill:#000080;stroke:none;stroke-width:10;stroke-linecap:square;stroke-miterlimit:4;stroke-dasharray:none;stroke-opacity:1"
       d="m -125.04561,-1724.9538 -113.3043,422.8575 113.3043,422.85749 189.1731,0 -113.3043,-422.85749 113.3043,-422.8575 -189.1731,0 z"
       id="rect4208-5"
       inkscape:connector-curvature="0" />
    <path
       style="fill:#000080;stroke:none;stroke-width:10;stroke-linecap:square;stroke-miterlimit:4;stroke-dasharray:none;stroke-opacity:1"
       d="m 64.12749,-1724.9538 -113.3043,422.8575 113.3043,422.85749 189.1731,0 -113.3043,-422.85749 113.3043,-422.8575 -189.1731,0 z"
       id="rect4208-4"
       inkscape:connector-curvature="0" />
    <path
       style="fill:#000080;stroke:none;stroke-width:10;stroke-linecap:square;stroke-miterlimit:4;stroke-dasharray:none;stroke-opacity:1"
       d="m 253.30059,-1724.9538 -113.3043,422.8575 113.3043,422.85749 189.1731,0 -113.3043,-422.85749 113.3043,-422.8575 -189.1731,0 z"
       id="rect4208-9-8"
       inkscape:connector-curvature="0" />
    <path
       style="fill:#000080;stroke:none;stroke-width:10;stroke-linecap:square;stroke-miterlimit:4;stroke-dasharray:none;stroke-opacity:1"
       d="m 442.47369,-1724.9538 -113.3043,422.8575 113.3043,422.85749 189.1731,0 -113.3043,-422.85749 113.3043,-422.8575 -189.1731,0 z"
       id="rect4208-5-9"
       inkscape:connector-curvature="0" />
    <path
       style="fill:#000080;stroke:none;stroke-width:10;stroke-linecap:square;stroke-miterlimit:4;stroke-dasharray:none;stroke-opacity:1"
       d="m -1070.9111,-1724.9538 -113.3043,422.8575 113.3043,422.85743 189.17309,0 -113.3043,-422.85743 113.3043,-422.8575 -189.17309,0 z"
       id="rect4208-2"
       inkscape:connector-curvature="0" />
    <path
       style="fill:#000080;stroke:none;stroke-width:10;stroke-linecap:square;stroke-miterlimit:4;stroke-dasharray:none;stroke-opacity:1"
       d="m -881.73801,-1724.9538 -113.3043,422.8575 113.3043,422.85743 189.1731,0 -113.3043,-422.85743 113.3043,-422.8575 -189.1731,0 z"
       id="rect4208-9-6"
       inkscape:connector-curvature="0" />
    <path
       style="fill:#000080;stroke:none;stroke-width:10;stroke-linecap:square;stroke-miterlimit:4;stroke-dasharray:none;stroke-opacity:1"
       d="m -692.56491,-1724.9538 -113.3043,422.8575 113.3043,422.85743 189.1731,0 -113.3043,-422.85743 113.3043,-422.8575 -189.1731,0 z"
       id="rect4208-5-4"
       inkscape:connector-curvature="0" />
    <path
       style="fill:#000080;stroke:none;stroke-width:10;stroke-linecap:square;stroke-miterlimit:4;stroke-dasharray:none;stroke-opacity:1"
       d="m 1199.1661,-1724.9538 -113.3043,422.8575 113.3043,422.85749 189.1731,0 -113.3043,-422.85749 113.3043,-422.8575 -189.1731,0 z"
       id="rect4208-43"
       inkscape:connector-curvature="0" />
    <path
       style="fill:#000080;stroke:none;stroke-width:10;stroke-linecap:square;stroke-miterlimit:4;stroke-dasharray:none;stroke-opacity:1"
       d="m 1388.3392,-1724.9538 -113.3043,422.8575 113.3043,422.85749 189.1731,0 -113.3043,-422.85749 113.3043,-422.8575 -189.1731,0 z"
       id="rect4208-9-0"
       inkscape:connector-curvature="0" />
    <path
       style="fill:#000080;stroke:none;stroke-width:10;stroke-linecap:square;stroke-miterlimit:4;stroke-dasharray:none;stroke-opacity:1"
       d="m 1577.5123,-1724.9538 -113.3043,422.8575 113.3043,422.85749 189.1731,0 -113.3043,-422.85749 113.3043,-422.8575 -189.1731,0 z"
       id="rect4208-5-6"
       inkscape:connector-curvature="0" />
    <path
       style="fill:#000080;stroke:none;stroke-width:10;stroke-linecap:square;stroke-miterlimit:4;stroke-dasharray:none;stroke-opacity:1"
       d="m 1766.6854,-1724.9538 -113.3043,422.8575 113.3043,422.85749 189.1731,0 -113.3043,-422.85749 113.3043,-422.8575 -189.1731,0 z"
       id="rect4208-4-9"
       inkscape:connector-curvature="0" />
    <path
       style="fill:#000080;stroke:none;stroke-width:10;stroke-linecap:square;stroke-miterlimit:4;stroke-dasharray:none;stroke-opacity:1"
       d="m 1955.8585,-1724.9538 -113.3043,422.8575 113.3043,422.85749 189.1731,0 -113.3043,-422.85749 113.3043,-422.8575 -189.1731,0 z"
       id="rect4208-9-8-1"
       inkscape:connector-curvature="0" />
    <path
       style="fill:#000080;stroke:none;stroke-width:10;stroke-linecap:square;stroke-miterlimit:4;stroke-dasharray:none;stroke-opacity:1"
       d="m 2145.0316,-1724.9538 -113.3043,422.8575 113.3043,422.85749 189.1731,0 -113.3043,-422.85749 113.3043,-422.8575 -189.1731,0 z"
       id="rect4208-5-9-7"
       inkscape:connector-curvature="0" />
    <path
       style="fill:#000080;stroke:none;stroke-width:10;stroke-linecap:square;stroke-miterlimit:4;stroke-dasharray:none;stroke-opacity:1"
       d="m 631.64679,-1724.9538 -113.3043,422.8575 113.3043,422.85749 189.17309,0 -113.3043,-422.85749 113.3043,-422.8575 -189.17309,0 z"
       id="rect4208-2-2"
       inkscape:connector-curvature="0" />
    <path
       style="fill:#000080;stroke:none;stroke-width:10;stroke-linecap:square;stroke-miterlimit:4;stroke-dasharray:none;stroke-opacity:1"
       d="m 820.81988,-1724.9538 -113.3043,422.8575 113.3043,422.85749 189.17312,0 -113.30432,-422.85749 113.30432,-422.8575 -189.17312,0 z"
       id="rect4208-9-6-8"
       inkscape:connector-curvature="0" />
    <path
       style="fill:#000080;stroke:none;stroke-width:10;stroke-linecap:square;stroke-miterlimit:4;stroke-dasharray:none;stroke-opacity:1"
       d="m 1009.993,-1724.9538 -113.30432,422.8575 113.30432,422.85749 189.1731,0 -113.3043,-422.85749 113.3043,-422.8575 -189.1731,0 z"
       id="rect4208-5-4-2"
       inkscape:connector-curvature="0" />
  </g>
</svg>
